<svg xmlns="http://www.w3.org/2000/svg" xmlns:xlink="http://www.w3.org/1999/xlink" viewBox="0 0 800 800" width="800" height="800" preserveAspectRatio="xMidYMid meet" style="width: 100%; height: 100%; transform: translate3d(0px, 0px, 0px); content-visibility: visible;"><defs><clipPath id="__lottie_element_4683"><rect width="800" height="800" x="0" y="0"></rect></clipPath><clipPath id="__lottie_element_4685"><path d="M0,0 L800,0 L800,800 L0,800z"></path></clipPath><clipPath id="__lottie_element_4689"><path d="M0,0 L800,0 L800,800 L0,800z"></path></clipPath></defs><g clip-path="url(#__lottie_element_4683)"><g transform="matrix(0.4896416962146759,0,0,0.4896416962146759,398.9792785644531,564.0560302734375)" opacity="1" style="display: block;"><g opacity="1" transform="matrix(1,0,0,1,-2,314)"><path fill="rgb(59,63,59)" fill-opacity="0.98" d=" M0,-64 C112.58760070800781,-64 204,-35.32160186767578 204,0 C204,35.32160186767578 112.58760070800781,64 0,64 C-112.58760070800781,64 -204,35.32160186767578 -204,0 C-204,-35.32160186767578 -112.58760070800781,-64 0,-64z"></path><path stroke-linecap="butt" stroke-linejoin="miter" fill-opacity="0" stroke-miterlimit="4" stroke="rgb(31,170,19)" stroke-opacity="1" stroke-width="0" d=" M0,-64 C112.58760070800781,-64 204,-35.32160186767578 204,0 C204,35.32160186767578 112.58760070800781,64 0,64 C-112.58760070800781,64 -204,35.32160186767578 -204,0 C-204,-35.32160186767578 -112.58760070800781,-64 0,-64z"></path></g></g><g clip-path="url(#__lottie_element_4685)" transform="matrix(1,0,0,1,0,0)" opacity="1" style="display: block;"><g transform="matrix(1,0,0,1,400,400)" opacity="1" style="display: block;"><g opacity="1" transform="matrix(1,0,0,1,0,0)"><path stroke-linecap="round" stroke-linejoin="miter" fill-opacity="0" stroke-miterlimit="4" stroke="rgb(31,170,19)" stroke-opacity="1" stroke-width="8" d=" M74.5,-151 C74.5,-151 61,-156 48.5,-146 C36,-136 -280.5,132.5 -280.5,132.5 C-280.5,132.5 -299.5,149 -275,160.5 C-250.5,172 -29,274.5 -29,274.5 C-29,274.5 -15.184000015258789,283.57000732421875 -1.5,280 C10,277 21,263 21,263 C21,263 304,-62 304,-62 C304,-62 313,-75 300,-78.5 C287,-82 74.5,-151 74.5,-151z"></path></g></g><g transform="matrix(0.9503899812698364,0,0,0.9515799880027771,404,400)" opacity="1" style="display: block;"><g opacity="1" transform="matrix(1,0,0,1,0,0)"><path stroke-linecap="butt" stroke-linejoin="miter" fill-opacity="0" stroke-miterlimit="4" stroke="rgb(31,170,19)" stroke-opacity="1" stroke-width="5" d=" M80.5,-135.5 C62.5,-141 55,-131.5 55,-131.5 C55,-131.5 -200.5,88.5 -200.5,88.5 C-200.5,88.5 -207.75,94.75 -206.75,100.25 C-205.75,105.75 -194,109.5 -194,109.5 C-194,109.5 -2.5,193 17,201.5 C36.5,210 51.5,194.5 51.5,194.5 C51.5,194.5 259.5,-39.5 273,-55 C286.5,-70.5 269,-75 269,-75 C269,-75 98.5,-130 80.5,-135.5z"></path></g></g></g><g clip-path="url(#__lottie_element_4689)" transform="matrix(1,0,0,1,0,0)" opacity="1" style="display: block;"><g transform="matrix(1,0,0,1,246,248)" opacity="1" style="display: block;"><g opacity="1" transform="matrix(0.2867699861526489,0,0,0.2867699861526489,238,221.13229370117188)"><path fill="rgb(31,170,19)" fill-opacity="0.98" d=" M-83,-855.3074951171875 C-83,-855.3074951171875 -83,-322.6925048828125 -83,-322.6925048828125 C-83,-286.26708984375 -112.57460021972656,-256.6925048828125 -149,-256.6925048828125 C-149,-256.6925048828125 -917,-256.6925048828125 -917,-256.6925048828125 C-953.4254150390625,-256.6925048828125 -983,-286.26708984375 -983,-322.6925048828125 C-983,-322.6925048828125 -983,-855.3074951171875 -983,-855.3074951171875 C-983,-891.73291015625 -953.4254150390625,-921.3074951171875 -917,-921.3074951171875 C-917,-921.3074951171875 -149,-921.3074951171875 -149,-921.3074951171875 C-112.57460021972656,-921.3074951171875 -83,-891.73291015625 -83,-855.3074951171875z"></path><path stroke-linecap="butt" stroke-linejoin="miter" fill-opacity="0" stroke-miterlimit="4" stroke="rgb(31,170,19)" stroke-opacity="1" stroke-width="0" d=" M-83,-855.3074951171875 C-83,-855.3074951171875 -83,-322.6925048828125 -83,-322.6925048828125 C-83,-286.26708984375 -112.57460021972656,-256.6925048828125 -149,-256.6925048828125 C-149,-256.6925048828125 -917,-256.6925048828125 -917,-256.6925048828125 C-953.4254150390625,-256.6925048828125 -983,-286.26708984375 -983,-322.6925048828125 C-983,-322.6925048828125 -983,-855.3074951171875 -983,-855.3074951171875 C-983,-891.73291015625 -953.4254150390625,-921.3074951171875 -917,-921.3074951171875 C-917,-921.3074951171875 -149,-921.3074951171875 -149,-921.3074951171875 C-112.57460021972656,-921.3074951171875 -83,-891.73291015625 -83,-855.3074951171875z"></path></g></g><g transform="matrix(0.06481097638607025,0.9978975653648376,-0.9978975653648376,0.06481097638607025,248.2354736328125,301.2588195800781)" opacity="1" style="display: block;"><g opacity="1" transform="matrix(1,0,0,1,0,0)"><path stroke-linecap="round" stroke-linejoin="miter" fill-opacity="0" stroke-miterlimit="4" stroke="rgb(31,170,19)" stroke-opacity="0" stroke-width="12" d=" M139.16099548339844,-245.16099548339844 C139.70399475097656,-245.70399475097656 140,-246 140,-246"></path></g></g><g transform="matrix(-0.9999037384986877,-0.013874921947717667,0.013874921947717667,-0.9999037384986877,301.5539855957031,180.01077270507812)" opacity="1" style="display: block;"><g opacity="1" transform="matrix(1,0,0,1,0,0)"><path stroke-linecap="round" stroke-linejoin="miter" fill-opacity="0" stroke-miterlimit="4" stroke="rgb(31,170,19)" stroke-opacity="0" stroke-width="12" d=" M139.16099548339844,-245.16099548339844 C139.70399475097656,-245.70399475097656 140,-246 140,-246"></path></g></g><g transform="matrix(-0.14288805425167084,-0.9897388815879822,0.9897388815879822,-0.14288805425167084,410.85076904296875,277.9965515136719)" opacity="1" style="display: block;"><g opacity="1" transform="matrix(1,0,0,1,0,0)"><path stroke-linecap="round" stroke-linejoin="miter" fill-opacity="0" stroke-miterlimit="4" stroke="rgb(31,170,19)" stroke-opacity="0" stroke-width="12" d=" M139.16099548339844,-245.16099548339844 C139.70399475097656,-245.70399475097656 140,-246 140,-246"></path></g></g><g transform="matrix(1,0,0,1,360,422)" opacity="1" style="display: block;"><g opacity="1" transform="matrix(1,0,0,1,0,0)"><path stroke-linecap="round" stroke-linejoin="miter" fill-opacity="0" stroke-miterlimit="4" stroke="rgb(31,170,19)" stroke-opacity="0" stroke-width="12" d=" M139.16099548339844,-245.16099548339844 C139.70399475097656,-245.70399475097656 140,-246 140,-246"></path></g></g><g transform="matrix(0.800000011920929,0,0,0.800000011920929,375.1000061035156,383.3999938964844)" opacity="1" style="display: block;"><g opacity="1" transform="matrix(1,0,0,1,-152,-108)"><path fill="rgb(255,255,255)" fill-opacity="0.98" d=" M0,-20 C11.038000106811523,-20 20,-11.038000106811523 20,0 C20,11.038000106811523 11.038000106811523,20 0,20 C-11.038000106811523,20 -20,11.038000106811523 -20,0 C-20,-11.038000106811523 -11.038000106811523,-20 0,-20z"></path><path stroke-linecap="butt" stroke-linejoin="miter" fill-opacity="0" stroke-miterlimit="4" stroke="rgb(31,170,19)" stroke-opacity="1" stroke-width="0" d=" M0,-20 C11.038000106811523,-20 20,-11.038000106811523 20,0 C20,11.038000106811523 11.038000106811523,20 0,20 C-11.038000106811523,20 -20,11.038000106811523 -20,0 C-20,-11.038000106811523 -11.038000106811523,-20 0,-20z"></path></g></g><g transform="matrix(0.800000011920929,0,0,0.800000011920929,529.5999755859375,383.3999938964844)" opacity="1" style="display: block;"><g opacity="1" transform="matrix(1,0,0,1,-152,-108)"><path fill="rgb(255,255,255)" fill-opacity="0.98" d=" M0,-20 C11.038000106811523,-20 20,-11.038000106811523 20,0 C20,11.038000106811523 11.038000106811523,20 0,20 C-11.038000106811523,20 -20,11.038000106811523 -20,0 C-20,-11.038000106811523 -11.038000106811523,-20 0,-20z"></path><path stroke-linecap="butt" stroke-linejoin="miter" fill-opacity="0" stroke-miterlimit="4" stroke="rgb(31,170,19)" stroke-opacity="1" stroke-width="0" d=" M0,-20 C11.038000106811523,-20 20,-11.038000106811523 20,0 C20,11.038000106811523 11.038000106811523,20 0,20 C-11.038000106811523,20 -20,11.038000106811523 -20,0 C-20,-11.038000106811523 -11.038000106811523,-20 0,-20z"></path></g></g><g transform="matrix(0.800000011920929,0,0,0.800000011920929,478.1000061035156,383.3999938964844)" opacity="1" style="display: block;"><g opacity="1" transform="matrix(1,0,0,1,-152,-108)"><path fill="rgb(255,255,255)" fill-opacity="0.98" d=" M0,-20 C11.038000106811523,-20 20,-11.038000106811523 20,0 C20,11.038000106811523 11.038000106811523,20 0,20 C-11.038000106811523,20 -20,11.038000106811523 -20,0 C-20,-11.038000106811523 -11.038000106811523,-20 0,-20z"></path><path stroke-linecap="butt" stroke-linejoin="miter" fill-opacity="0" stroke-miterlimit="4" stroke="rgb(31,170,19)" stroke-opacity="1" stroke-width="0" d=" M0,-20 C11.038000106811523,-20 20,-11.038000106811523 20,0 C20,11.038000106811523 11.038000106811523,20 0,20 C-11.038000106811523,20 -20,11.038000106811523 -20,0 C-20,-11.038000106811523 -11.038000106811523,-20 0,-20z"></path></g></g><g transform="matrix(0.800000011920929,0,0,0.800000011920929,426.6000061035156,383.3999938964844)" opacity="1" style="display: block;"><g opacity="1" transform="matrix(1,0,0,1,-152,-108)"><path fill="rgb(255,255,255)" fill-opacity="0.98" d=" M0,-20 C11.038000106811523,-20 20,-11.038000106811523 20,0 C20,11.038000106811523 11.038000106811523,20 0,20 C-11.038000106811523,20 -20,11.038000106811523 -20,0 C-20,-11.038000106811523 -11.038000106811523,-20 0,-20z"></path><path stroke-linecap="butt" stroke-linejoin="miter" fill-opacity="0" stroke-miterlimit="4" stroke="rgb(31,170,19)" stroke-opacity="1" stroke-width="0" d=" M0,-20 C11.038000106811523,-20 20,-11.038000106811523 20,0 C20,11.038000106811523 11.038000106811523,20 0,20 C-11.038000106811523,20 -20,11.038000106811523 -20,0 C-20,-11.038000106811523 -11.038000106811523,-20 0,-20z"></path></g></g></g></g></svg>